/* XPM */
static char * kpcli_xpm[] = {
"32 32 421 2",
"  	c None",
". 	c #000000",
"+ 	c #181B16",
"@ 	c #0B0C0A",
"# 	c #6E7967",
"$ 	c #9BA596",
"% 	c #CBCFCA",
"& 	c #FAFAFA",
"* 	c #9CA696",
"= 	c #707D68",
"- 	c #0D110B",
"; 	c #343A30",
"> 	c #BCC3B8",
", 	c #FFFFFF",
"' 	c #FEFEFE",
") 	c #CED1CC",
"! 	c #ADB6A8",
"~ 	c #E6E7E5",
"{ 	c #BDC4B9",
"] 	c #3A4435",
"^ 	c #010101",
"/ 	c #4D5549",
"( 	c #EDEEED",
"_ 	c #FBFBFB",
": 	c #92A588",
"< 	c #66914E",
"[ 	c #65A142",
"} 	c #6EB048",
"| 	c #639B44",
"1 	c #70975B",
"2 	c #B7C0B1",
"3 	c #55614D",
"4 	c #030303",
"5 	c #474D45",
"6 	c #1B1E1B",
"7 	c #141713",
"8 	c #D1D6CF",
"9 	c #EAECEA",
"0 	c #71935E",
"a 	c #63A93B",
"b 	c #64AB3C",
"c 	c #64AA3B",
"d 	c #63AA3A",
"e 	c #5F9F3A",
"f 	c #8A9E7F",
"g 	c #D1D7CF",
"h 	c #191F15",
"i 	c #E5E5E5",
"j 	c #D6D6D6",
"k 	c #757575",
"l 	c #191919",
"m 	c #4F544C",
"n 	c #F1F1F1",
"o 	c #88A07A",
"p 	c #6AAE44",
"q 	c #6BAE44",
"r 	c #64A93D",
"s 	c #628A4B",
"t 	c #637957",
"u 	c #5A903C",
"v 	c #67A543",
"w 	c #AFB8A9",
"x 	c #8F9B88",
"y 	c #E2E2E2",
"z 	c #AEB5AC",
"A 	c #BABFB8",
"B 	c #F6F6F6",
"C 	c #B4B4B4",
"D 	c #2E322D",
"E 	c #080808",
"F 	c #28401A",
"G 	c #568D37",
"H 	c #6AAE43",
"I 	c #718367",
"J 	c #FCFCFC",
"K 	c #9D9D9D",
"L 	c #365424",
"M 	c #678F4F",
"N 	c #F5F5F5",
"O 	c #F2F2F2",
"P 	c #1B2317",
"Q 	c #DEDEDE",
"R 	c #B8BDB7",
"S 	c #2E7922",
"T 	c #337D24",
"U 	c #63825D",
"V 	c #7C8878",
"W 	c #040504",
"X 	c #5DA135",
"Y 	c #BFC1BE",
"Z 	c #30302F",
"` 	c #63A240",
" .	c #BCC2B8",
"..	c #4A5742",
"+.	c #D9DAD9",
"@.	c #BBC0BB",
"#.	c #3A7E31",
"$.	c #408735",
"%.	c #428935",
"&.	c #6D8866",
"*.	c #869282",
"=.	c #0E0F0E",
"-.	c #090A09",
";.	c #6CAE47",
">.	c #65A440",
",.	c #A0A0A0",
"'.	c #EAEAEA",
").	c #242424",
"!.	c #76A45B",
"~.	c #A3B29A",
"{.	c #73816B",
"].	c #D2D3D2",
"^.	c #FDFDFD",
"/.	c #70886E",
"(.	c #317A27",
"_.	c #357F29",
":.	c #378029",
"<.	c #6C8667",
"[.	c #7C8A79",
"}.	c #010200",
"|.	c #111210",
"1.	c #5CA437",
"2.	c #5FA737",
"3.	c #60A836",
"4.	c #3F4F37",
"5.	c #A6A6A6",
"6.	c #C4C4C4",
"7.	c #515151",
"8.	c #0D1309",
"9.	c #64AA3C",
"0.	c #93AA87",
"a.	c #819078",
"b.	c #546153",
"c.	c #6E876B",
"d.	c #367E2D",
"e.	c #3A832F",
"f.	c #3C8430",
"g.	c #6D8468",
"h.	c #9F9F9F",
"i.	c #414141",
"j.	c #64A743",
"k.	c #67AA45",
"l.	c #6BAD47",
"m.	c #5F963F",
"n.	c #2E4223",
"o.	c #181818",
"p.	c #273420",
"q.	c #6F9E55",
"r.	c #AAB7A3",
"s.	c #697861",
"t.	c #020202",
"u.	c #687468",
"v.	c #6A8567",
"w.	c #295F23",
"x.	c #153012",
"y.	c #020502",
"z.	c #050504",
"A.	c #203A16",
"B.	c #467D2E",
"C.	c #5BA13C",
"D.	c #5FA43D",
"E.	c #61A73E",
"F.	c #64A93F",
"G.	c #67AC40",
"H.	c #67A743",
"I.	c #67AC3F",
"J.	c #CFD2CD",
"K.	c #3C4936",
"L.	c #616C61",
"M.	c #7D7D7D",
"N.	c #1E1E1E",
"O.	c #262626",
"P.	c #797B79",
"Q.	c #4F7941",
"R.	c #4E9734",
"S.	c #529936",
"T.	c #559C37",
"U.	c #59A039",
"V.	c #5CA23B",
"W.	c #61A63D",
"X.	c #64A83F",
"Y.	c #66AC40",
"Z.	c #68AD40",
"`.	c #799669",
" +	c #D8DBD7",
".+	c #0F150B",
"++	c #000200",
"@+	c #282E27",
"#+	c #BBBBBB",
"$+	c #ECEDEB",
"%+	c #5E8355",
"&+	c #51953C",
"*+	c #54983E",
"=+	c #579B3E",
"-+	c #5A9E3F",
";+	c #5DA141",
">+	c #60A442",
",+	c #64A744",
"'+	c #66A945",
")+	c #6AAC46",
"!+	c #67984B",
"~+	c #D9DCD8",
"{+	c #6E7C66",
"]+	c #050505",
"^+	c #090C08",
"/+	c #153B11",
"(+	c #296D20",
"_+	c #317924",
":+	c #7D9179",
"<+	c #5F7F58",
"[+	c #3B8628",
"}+	c #3E892A",
"|+	c #428C2B",
"1+	c #41892A",
"2+	c #468430",
"3+	c #4B952F",
"4+	c #4E9831",
"5+	c #529B32",
"6+	c #559E33",
"7+	c #59A235",
"8+	c #648F4E",
"9+	c #C3C9BF",
"0+	c #AEB7A8",
"a+	c #040603",
"b+	c #040404",
"c+	c #2A2D2A",
"d+	c #ACACAC",
"e+	c #EFEFEF",
"f+	c #5D7E5A",
"g+	c #398132",
"h+	c #3E8434",
"i+	c #3D8132",
"j+	c #438935",
"k+	c #478C38",
"l+	c #498F39",
"m+	c #4C9039",
"n+	c #7C9275",
"o+	c #CDD1CB",
"p+	c #7D9874",
"q+	c #658B56",
"r+	c #5E8A4C",
"s+	c #78986A",
"t+	c #92A589",
"u+	c #EEEEED",
"v+	c #BFC7BB",
"w+	c #323D2D",
"x+	c #181C18",
"y+	c #B3BAB3",
"z+	c #EFF0EF",
"A+	c #567B54",
"B+	c #327C2B",
"C+	c #347E2B",
"D+	c #38812D",
"E+	c #3B852E",
"F+	c #3E872E",
"G+	c #6C8965",
"H+	c #F8F8F8",
"I+	c #82907B",
"J+	c #141A13",
"K+	c #0A0A0A",
"L+	c #171817",
"M+	c #ACB4AC",
"N+	c #638262",
"O+	c #2A7624",
"P+	c #2E7927",
"Q+	c #327C28",
"R+	c #5E8158",
"S+	c #848F81",
"T+	c #6E7E6B",
"U+	c #919F8D",
"V+	c #ABB4A8",
"W+	c #8E9C88",
"X+	c #63725D",
"Y+	c #313C2B",
"Z+	c #0B0B0B",
"`+	c #121512",
" @	c #ADB4AD",
".@	c #698469",
"+@	c #2F772D",
"@@	c #337A30",
"#@	c #357D31",
"$@	c #3C8334",
"%@	c #547E4D",
"&@	c #DCDFDC",
"*@	c #EEEFEE",
"=@	c #525F4E",
"-@	c #101311",
";@	c #A8B1A8",
">@	c #658165",
",@	c #1A681B",
"'@	c #1B691C",
")@	c #1D6C1C",
"!@	c #216F1D",
"~@	c #24721F",
"{@	c #277520",
"]@	c #2B7822",
"^@	c #497843",
"/@	c #DADDD9",
"(@	c #E6E8E5",
"_@	c #3F4C3D",
":@	c #151815",
"<@	c #AAB2AA",
"[@	c #6F876F",
"}@	c #2A722B",
"|@	c #2C752D",
"1@	c #316B32",
"2@	c #799179",
"3@	c #829882",
"4@	c #8B9F8A",
"5@	c #4F794D",
"6@	c #388032",
"7@	c #3B8233",
"8@	c #527E4C",
"9@	c #DEE0DD",
"0@	c #424D40",
"a@	c #0E110E",
"b@	c #A7B0A7",
"c@	c #708870",
"d@	c #236C24",
"e@	c #246F25",
"f@	c #236F24",
"g@	c #306431",
"h@	c #DDE0DD",
"i@	c #447341",
"j@	c #2E7827",
"k@	c #307A27",
"l@	c #121412",
"m@	c #A6B0A6",
"n@	c #728972",
"o@	c #206A21",
"p@	c #226E23",
"q@	c #677667",
"r@	c #98A298",
"s@	c #D5DAD5",
"t@	c #427340",
"u@	c #317B2C",
"v@	c #919B91",
"w@	c #798D79",
"x@	c #2A702B",
"y@	c #286C29",
"z@	c #29652A",
"A@	c #365A36",
"B@	c #6B7A6B",
"C@	c #151715",
"D@	c #A6AEA6",
"E@	c #CCD1CC",
"F@	c #41733F",
"G@	c #B5BAB5",
"H@	c #788E79",
"I@	c #186419",
"J@	c #19681A",
"K@	c #3E6E3E",
"L@	c #C1C5C1",
"M@	c #697A69",
"N@	c #111511",
"O@	c #ADB6AE",
"P@	c #C1C9C1",
"Q@	c #346C31",
"R@	c #287422",
"S@	c #2C7825",
"T@	c #457640",
"U@	c #D1D6D0",
"V@	c #AFB6AD",
"W@	c #B7BCB7",
"X@	c #296C2A",
"Y@	c #447345",
"Z@	c #D7DAD7",
"`@	c #D6D8D6",
" #	c #C3C7C3",
".#	c #C3C6C3",
"+#	c #5F6F5F",
"@#	c #161C16",
"##	c #BBC2BB",
"$#	c #BAC2BA",
"%#	c #3C733A",
"&#	c #367E31",
"*#	c #398133",
"=#	c #4F744B",
"-#	c #E2E3E2",
";#	c #0C110A",
">#	c #B6BBB6",
",#	c #216B22",
"'#	c #396C3A",
")#	c #CDD2CD",
"!#	c #B4BDB5",
"~#	c #171E17",
"{#	c #1F251F",
"]#	c #C3C9C3",
"^#	c #AEB8AE",
"/#	c #2E6B2B",
"(#	c #267321",
"_#	c #396A34",
":#	c #DCDDDB",
"<#	c #020701",
"[#	c #B1B8B1",
"}#	c #D9DBD9",
"|#	c #C9CFC9",
"1#	c #1D271D",
"2#	c #090909",
"3#	c #222A23",
"4#	c #CDD1CD",
"5#	c #C0C7C0",
"6#	c #A3B0A3",
"7#	c #D7D9D7",
"8#	c #080B07",
"9#	c #B1B6B1",
"0#	c #F7F7F7",
"a#	c #D7DAD8",
"b#	c #364336",
"c#	c #2F382F",
"d#	c #D6DAD7",
"e#	c #D0D4D0",
"f#	c #030603",
"g#	c #0C120C",
"h#	c #0D150E",
"i#	c #090F09",
"j#	c #262F26",
"k#	c #485648",
"l#	c #475647",
"m#	c #475646",
"n#	c #404E3F",
"  .                                 . . . + . . .               ",
"  . . . .                         @ # $ % & % * = - .           ",
"  . . . . . .                 . ; > , ' ) ! ~ , , { ] ^         ",
". . . . . . . . .           . / ( _ : < [ } | 1 2 , ( 3 .       ",
"4 5 6 . . . . . . . . .     7 8 9 0 a b c c c d e f , g h .     ",
"4 i , j k l . . . . . . . . m n o p p q q r s t u v w , x 4     ",
". y ( z A B C D . . . . . . . E F G p p H I J , K L M N O P .   ",
". Q R S T U _ , V W . . . . . . . . b b X Y , , ' Z `  ., ...   ",
". +.@.#.$.%.&.J , *.=.  . -.. . . . ;.} >.,., , '.).!.~., {..   ",
". ].^./.(._.:.<.^., [.}.. |.. . . . 1.2.3.4.5.6.7.8.9.0., a..   ",
". b.J J c.d.e.f.g.h.i.. . . . . . . j.k.l.m.n.o.p.q.} r., s..   ",
"  t.u., _ v.w.x.y.. . . . . . z.A.B.C.D.E.F.G.H.I.I.e J., K..   ",
"    . L.M.N.. . . . . . . O.P.Q.R.S.T.U.V.W.X.Y.Z.Z.`.,  +.+.   ",
"    . . . . . . . . ++@+#+$+%+&+*+=+-+;+>+,+'+)+;.!+~+, {+]+    ",
"  . . . . . . . ^+/+(+_+:+<+[+}+|+1+2+3+4+5+6+7+8+9+, 0+a+b+    ",
"  . . . . . c+d+e+f+g+h+i+j+k+l+m+n+o+p+q+r+s+t+u+, v+w+E       ",
"  . . . . . x+y+, z+A+B+C+D+E+F+G+^., , , , , , H+I+J+K+.       ",
"  .         L+M+, _ N+O+P+Q+_.R+H+, S+T+U+V+W+X+Y+^ Z+          ",
"          `+ @, J .@+@@@#@g+$@%@&@, *@=@. . ^ ]+4 .             ",
"        -@;@, ^.>@,@'@)@!@~@{@]@^@/@, (@_@]+                    ",
"      :@<@, ' [@}@|@1@2@3@4@5@6@7@8@~+, 9@0@K+                  ",
"    a@b@, , c@d@e@f@g@, , , h@i@j@k@. . . . . . . . . . . . . . ",
"  l@m@, , n@o@p@p@f@g@, q@r@, s@t@u@. . . . . . . . . . . . . . ",
". v@, , w@x@|@|@y@z@A@, B@C@D@, E@F@. . . . . . . . . . . . . . ",
". G@, H@I@J@J@K@L@'.^., M@. N@O@, P@Q@R@S@T@U@, V@y.            ",
". W@L@X@|@|@Y@Z@, `@ #.#+#. . @###, $#%#&#*#=#, -#;#.           ",
". >#W@,#p@'#)#, !#~#. . . .   . {#]#, ^#/#(#_#, :#<#.           ",
". >#e+[#[#}#, |#1#2#. . . .     . 3#4#, 5#6#m@, 7#8#.           ",
". 9#0#0#0#0#a#b#K+                . c#d#, , , , e#f#.           ",
". g#h#h#h#h#i#b+.                   . j#k#l#l#m#n#. .           ",
". . . . . . . .                       . . . . . . .             ",
"                                                                "};
